<?xml version="1.0" encoding="UTF-8"?>
<!DOCTYPE svg PUBLIC "-//W3C//DTD SVG 1.1//EN" "http://www.w3.org/Graphics/SVG/1.1/DTD/svg11.dtd">
<!-- Creator: CorelDRAW X8 -->
<svg xmlns="http://www.w3.org/2000/svg" xml:space="preserve" width="50mm" height="25mm" version="1.1" style="shape-rendering:geometricPrecision; text-rendering:geometricPrecision; image-rendering:optimizeQuality; fill-rule:evenodd; clip-rule:evenodd"
viewBox="0 0 5000 2500"
 xmlns:xlink="http://www.w3.org/1999/xlink">
 <defs>
  <style type="text/css">
   <![CDATA[
    .fil1 {fill:black}
    .fil0 {fill:black;fill-rule:nonzero}
   ]]>
  </style>
 </defs>
 <g id="Capa_x0020_1">
  <metadata id="CorelCorpID_0Corel-Layer"/>
  <path class="fil0" d="M903 1303c-33,0 -49,-11 -49,-31 0,-17 10,-35 30,-55 20,-19 39,-29 56,-29 13,0 19,6 19,16 0,7 -5,13 -14,19 -10,6 -19,9 -29,9 -12,0 -20,-1 -26,-4 -16,17 -24,32 -24,44 0,12 12,19 37,19 18,0 48,-7 89,-22 41,-14 78,-33 110,-56 1,0 2,-1 4,-1 4,0 6,2 6,5 0,3 -1,5 -3,5 -34,24 -71,43 -114,58 -42,15 -73,23 -92,23zm-3 -84c5,2 11,2 16,2 6,0 12,-2 20,-6 8,-4 11,-7 11,-11 0,-2 -2,-4 -7,-4 -12,0 -25,7 -40,19zm210 86c-29,0 -44,-10 -44,-30 0,-4 0,-8 1,-10 4,-17 15,-34 34,-51 19,-17 36,-26 51,-26 13,0 19,5 19,15 0,14 -8,26 -23,34l-1 0c-1,1 -1,1 -2,1 -4,0 -6,-2 -6,-6 0,-1 1,-3 3,-5 10,-6 16,-14 18,-22 0,-3 -3,-5 -8,-5 -13,0 -28,8 -44,23 -16,15 -26,30 -30,44l0 8c0,12 11,18 32,18 27,0 61,-8 102,-22 41,-15 79,-34 116,-58 1,0 2,-1 3,-1 4,0 6,2 6,5 0,3 -1,5 -3,5 -37,24 -77,44 -119,60 -42,15 -77,23 -105,23zm135 55c-6,0 -8,-3 -8,-8 0,-19 38,-76 116,-169 77,-93 158,-182 243,-267 85,-84 136,-127 154,-127 12,0 18,6 18,17 0,28 -46,89 -138,182 -92,92 -190,170 -294,233 -33,41 -58,75 -74,101 -4,6 -5,9 -5,10 2,1 6,-1 12,-8l49 -45c61,-56 102,-84 122,-84 10,0 15,5 15,15 0,7 -3,18 -10,34 -7,19 -10,29 -10,32 0,11 8,17 23,17 22,0 53,-9 93,-26 41,-17 76,-35 107,-55l3 0c4,0 6,2 6,5 0,3 -1,5 -3,5 -30,20 -67,38 -109,56 -42,18 -74,27 -97,27 -23,0 -34,-10 -34,-29 0,-8 3,-20 10,-37 6,-16 10,-26 10,-29 0,-2 -1,-4 -4,-4 -17,0 -55,27 -114,81l-49 45c-18,19 -29,28 -32,28zm115 -167c97,-63 188,-138 271,-222 84,-85 126,-140 126,-165 0,-3 -2,-5 -7,-5 -16,0 -66,44 -151,131 -86,87 -165,174 -239,261zm271 115c-13,0 -20,-8 -20,-23 0,-14 6,-29 18,-44 12,-15 27,-28 45,-39 0,0 1,-1 1,-1 0,0 1,0 1,-1 2,-5 6,-7 10,-6 1,1 3,1 4,0 5,-2 10,-4 15,-5 0,0 0,-1 2,-1 3,0 5,2 5,6 0,4 -1,5 -4,5 -1,0 -2,1 -2,1l-2 1c-2,2 -2,3 0,3 28,16 59,25 92,27 33,2 62,-5 87,-19l3 0c4,0 6,2 6,5 0,2 -2,4 -4,5 -27,16 -59,22 -95,20 -37,-2 -70,-12 -100,-30 -2,-2 -3,-1 -3,2 4,20 -1,41 -14,62 -14,21 -29,32 -45,32zm0 -11c12,0 24,-10 35,-30 11,-20 15,-38 13,-54 -17,10 -31,21 -41,34 -10,14 -16,26 -16,38 0,8 3,12 9,12zm87 414c-10,0 0,-19 29,-56 29,-38 72,-88 127,-149l305 -373c1,-1 3,-2 4,-2 4,0 6,2 6,6 0,2 0,3 -1,3l-193 235 57 -60c35,-37 68,-67 101,-89 33,-23 59,-34 78,-34 11,0 17,5 17,14 0,16 -16,35 -48,59 85,-9 148,-26 188,-52 0,0 1,-1 3,-1 4,0 6,2 6,5 0,2 -1,3 -3,5 -42,28 -114,47 -215,57l-1 0c-22,13 -41,20 -57,20 -10,0 -15,-4 -15,-10 0,-10 23,-17 68,-21 16,-10 31,-21 43,-33 13,-12 19,-21 19,-29 0,-2 -2,-3 -5,-3 -17,0 -42,11 -73,33 -32,23 -64,51 -98,87l-179 193 -57 73c-59,74 -92,113 -99,119 -2,2 -5,3 -7,3zm790 -410c-25,0 -38,-10 -38,-30 0,-15 9,-35 26,-61 2,-1 2,-2 1,-3 0,0 -1,0 -3,1 -5,3 -12,8 -21,14 -73,51 -119,77 -137,77 -12,0 -19,-6 -19,-16 0,-16 17,-36 51,-58 33,-22 60,-33 78,-33 14,0 24,5 29,15 23,-16 36,-24 40,-24 5,0 7,3 7,7 0,3 -4,10 -11,20 -20,27 -29,47 -29,61 0,12 8,18 26,18 17,0 45,-8 83,-23 39,-15 72,-33 100,-53 0,0 2,-1 4,-1 3,0 5,2 5,5 0,2 -1,4 -2,5 -28,20 -63,39 -102,55 -40,16 -70,24 -88,24zm-172 -14c19,0 62,-25 129,-74 -3,-6 -10,-10 -19,-10 -18,0 -42,10 -72,31 -30,20 -45,37 -45,49 0,2 2,4 7,4zm348 121c-18,0 -28,-8 -28,-26 0,-11 7,-24 19,-42 13,-17 24,-31 35,-42 12,-12 29,-29 54,-53 56,-53 85,-87 85,-100 0,-6 -10,-15 -28,-28 -42,42 -83,77 -123,105 -1,1 -2,1 -4,1 -4,0 -5,-2 -5,-6 0,-1 0,-2 2,-4 41,-28 81,-63 119,-102 -19,-13 -29,-22 -29,-28 0,-13 14,-29 41,-49 27,-20 48,-30 64,-30 8,0 12,4 12,12 0,14 -23,45 -69,93 3,2 7,6 12,10 5,5 9,8 11,10 2,2 4,4 6,7 2,3 3,6 3,9 0,6 -2,13 -6,20 -4,7 -12,17 -23,29 -11,11 -20,20 -26,27 -6,6 -18,17 -34,34 -23,21 -40,38 -52,49 -11,12 -23,26 -34,41 -12,15 -18,28 -18,37 0,10 5,14 16,14 28,0 75,-19 143,-58 68,-38 134,-80 198,-125 0,0 1,-1 3,-1 4,0 6,2 6,5 0,2 -1,4 -2,5 -66,47 -133,89 -202,128 -69,39 -118,58 -146,58zm135 -305c37,-38 59,-65 66,-82 1,-1 1,-2 0,-3 -1,-1 -3,-1 -4,-1 -14,3 -33,12 -55,28 -21,17 -32,29 -32,38 0,2 8,9 25,20zm326 198c-25,0 -37,-10 -37,-30 0,-15 8,-35 26,-61 1,-1 2,-2 1,-3 -1,0 -2,0 -3,1 -5,3 -12,8 -21,14 -74,51 -119,77 -137,77 -13,0 -19,-6 -19,-16 0,-16 17,-36 50,-58 34,-22 60,-33 79,-33 14,0 23,5 29,15 22,-16 35,-24 40,-24 4,0 7,3 7,7 0,3 -4,10 -12,20 -19,27 -29,47 -29,61 0,12 9,18 26,18 18,0 46,-8 84,-23 38,-15 72,-33 99,-53 1,0 2,-1 5,-1 3,0 5,2 5,5 0,2 -1,4 -2,5 -29,20 -63,39 -103,55 -40,16 -69,24 -88,24zm-171 -14c18,0 61,-25 129,-74 -4,-6 -10,-10 -19,-10 -18,0 -42,10 -72,31 -31,20 -46,37 -46,49 0,2 3,4 8,4zm503 106c-12,0 -18,-5 -18,-17 0,-16 14,-44 40,-83 26,-39 48,-68 64,-86 2,-1 3,-2 5,-2 4,0 6,2 6,6l-1 4c-17,18 -38,45 -63,83 -25,37 -38,63 -38,78 0,4 2,6 5,6 11,0 31,-13 60,-40 30,-27 56,-56 81,-86 -3,-5 -5,-12 -5,-20 0,-13 5,-26 14,-39 10,-13 20,-20 30,-20 9,0 14,4 14,12 0,12 -13,34 -38,68 8,6 17,9 29,9 43,0 93,-18 149,-54l3 0c4,0 6,2 6,5 0,3 -1,5 -3,5 -57,37 -108,55 -155,55 -15,0 -27,-4 -36,-11 -26,32 -54,61 -84,88 -30,26 -52,39 -65,39zm149 -148c21,-27 32,-45 32,-55 0,0 -1,-1 -2,-1 -6,0 -13,6 -20,16 -8,11 -11,21 -11,31 0,1 0,2 0,4 1,2 1,4 1,5zm159 63c-13,0 -20,-8 -20,-23 0,-14 6,-29 18,-44 12,-15 27,-28 46,-39 0,0 0,-1 0,-1 1,0 1,0 1,-1 2,-5 6,-7 10,-6 1,1 3,1 4,0 5,-2 10,-4 15,-5 0,0 1,-1 2,-1 3,0 5,2 5,6 0,4 -1,5 -4,5 -1,0 -1,1 -2,1l-2 1c-2,2 -2,3 0,3 28,16 59,25 92,27 33,2 62,-5 87,-19l3 0c4,0 6,2 6,5 0,2 -1,4 -4,5 -27,16 -59,22 -95,20 -37,-2 -70,-12 -100,-30 -2,-2 -3,-1 -3,2 4,20 -1,41 -14,62 -13,21 -28,32 -45,32zm0 -11c12,0 24,-10 35,-30 11,-20 16,-38 13,-54 -17,10 -30,21 -41,34 -10,14 -15,26 -15,38 0,8 2,12 8,12zm227 51c-12,0 -18,-4 -18,-13 0,-15 37,-36 110,-62 2,0 2,-1 2,-1 5,-8 6,-12 6,-13 -1,-2 -13,-1 -36,2 -16,2 -28,4 -35,4 -17,0 -25,-6 -25,-17 0,-14 11,-30 35,-48 23,-17 44,-26 63,-26 12,0 18,5 18,15 0,2 0,4 -1,4 -3,14 -10,23 -21,29 -1,1 -2,1 -4,1 -4,0 -6,-2 -6,-6 0,-2 1,-4 3,-5 11,-6 17,-13 17,-22 0,-3 -2,-5 -6,-5 -16,0 -34,8 -54,23 -21,16 -32,29 -32,40 0,4 5,6 13,6 7,0 18,-2 33,-5 15,-2 25,-4 30,-4 13,0 20,5 20,15 -1,0 -1,1 -1,2 0,0 0,1 0,1 -1,0 -1,1 -1,2 0,0 0,1 1,2 0,0 0,0 1,0l83 -25c59,-16 94,-26 104,-30l2 0c4,0 6,2 6,5 0,4 -2,6 -5,6 -10,4 -45,14 -104,31l-95 28 -3 2c-12,16 -27,30 -47,44 -19,13 -37,20 -53,20zm0 -12c23,0 49,-14 76,-41 2,-2 1,-3 -2,-3 -21,8 -40,16 -56,25 -16,9 -25,14 -25,17 0,1 3,2 7,2z"/>
  <path class="fil1" d="M745 1180c-67,0 -163,5 -220,8 6,-15 121,-164 139,-183 10,-10 17,-14 20,-30 -22,3 -48,45 -61,61l-113 151c-18,4 -19,4 -48,7 -30,3 -26,-3 -32,11 10,7 52,-3 68,-3 -17,33 -101,133 -100,156 18,-3 50,-62 60,-76 10,-13 19,-27 28,-41 10,-14 21,-27 30,-42 73,-2 142,-7 219,-7 -14,27 -143,185 -130,217 17,-2 16,-9 20,-22 3,-13 8,-20 14,-31 34,-59 107,-154 112,-164 25,0 73,5 91,1 -4,-10 8,-10 -36,-12 -14,-1 -28,0 -43,-1 5,-13 30,-42 40,-54 43,-54 75,-91 122,-141 13,-13 5,-16 4,-17 -20,-1 -174,201 -184,212z"/>
  <path class="fil0" d="M4449 1155c19,-39 38,-58 76,-58 42,0 77,35 77,77 0,76 -77,152 -153,229 -76,-77 -153,-153 -153,-229 0,-42 34,-77 77,-77 38,0 57,19 76,58z"/>
 </g>
</svg>
