<?xml version="1.0" encoding="UTF-8"?>
<!DOCTYPE svg PUBLIC "-//W3C//DTD SVG 1.1//EN" "http://www.w3.org/Graphics/SVG/1.1/DTD/svg11.dtd">
<!-- Creator: CorelDRAW X8 -->
<svg xmlns="http://www.w3.org/2000/svg" xml:space="preserve" width="50mm" height="25mm" version="1.1" style="shape-rendering:geometricPrecision; text-rendering:geometricPrecision; image-rendering:optimizeQuality; fill-rule:evenodd; clip-rule:evenodd"
viewBox="0 0 5000 2500"
 xmlns:xlink="http://www.w3.org/1999/xlink">
 <defs>
  <style type="text/css">
   <![CDATA[
    .fil0 {fill:black;fill-rule:nonzero}
   ]]>
  </style>
 </defs>
 <g id="Capa_x0020_1">
  <metadata id="CorelCorpID_0Corel-Layer"/>
  <path class="fil0" d="M1715 945l0 -217 77 0c16,0 28,2 38,7 9,4 17,11 22,20 5,9 8,19 8,29 0,9 -2,18 -7,26 -5,8 -12,15 -22,20 13,4 22,10 29,20 7,9 10,20 10,32 0,11 -2,20 -6,29 -4,9 -9,15 -15,20 -6,5 -14,8 -23,11 -9,2 -20,3 -33,3l-78 0zm27 -125l45 0c12,0 20,-1 25,-3 7,-2 13,-6 16,-11 4,-5 5,-11 5,-19 0,-7 -1,-13 -5,-19 -3,-5 -8,-9 -14,-11 -6,-2 -16,-3 -31,-3l-41 0 0 66zm0 100l51 0c9,0 15,0 19,-1 6,-1 11,-3 16,-6 4,-3 7,-7 10,-12 3,-6 4,-12 4,-19 0,-8 -2,-15 -6,-21 -4,-6 -9,-10 -16,-12 -7,-3 -17,-4 -30,-4l-48 0 0 75zm223 25l0 -92 -79 -125 33 0 40 66c8,12 15,24 21,36 7,-11 14,-24 23,-38l40 -64 32 0 -82 125 0 92 -28 0z"/>
  <path class="fil0" d="M2197 1092l0 -565 113 0 169 504 168 -504 111 0 0 565 -70 0 0 -492 -167 492 -88 0 -168 -492 0 492 -68 0zm712 0l0 -565 374 0 0 56 -307 0 0 194 274 0 0 63 -274 0 0 196 307 0 0 56 -374 0z"/>
  <path class="fil0" d="M828 1727c-17,0 -30,-6 -40,-18 -10,-12 -13,-27 -10,-45 4,-23 17,-49 37,-80 21,-31 45,-61 73,-90 29,-28 61,-53 97,-73 36,-19 70,-29 100,-29 18,0 32,4 42,13 9,8 13,19 10,33 -3,23 -17,47 -41,71 -24,25 -51,45 -81,62 0,1 -1,1 -2,1 -3,0 -5,-1 -5,-5 0,-2 1,-4 3,-5 31,-17 57,-38 79,-61 21,-23 34,-45 37,-65 2,-11 -1,-19 -8,-25 -7,-5 -19,-8 -34,-8 -39,0 -81,16 -127,48 -46,32 -85,68 -115,109 -31,41 -49,77 -54,106 -3,15 0,27 7,37 8,9 18,14 32,14 47,0 98,-10 153,-30 55,-21 100,-42 135,-65l3 0c4,0 6,1 6,4 0,3 -1,4 -3,5 -36,23 -81,44 -138,65 -56,21 -108,31 -156,31zm382 -25c-22,0 -33,-9 -33,-28 0,-9 4,-21 13,-35 4,-5 5,-7 5,-7 0,-1 -3,1 -9,5 -47,38 -77,57 -91,57 -9,0 -13,-4 -13,-13 0,-17 17,-41 53,-73 1,-1 2,-2 4,-2 3,0 5,2 5,6 0,1 -1,2 -2,3 -33,30 -49,51 -49,65 0,3 1,4 2,4 10,0 38,-18 85,-56 28,-22 44,-34 47,-34 9,0 8,8 -6,24 -22,26 -34,45 -34,56 0,12 8,18 23,18 14,0 39,-8 74,-23 34,-15 64,-31 88,-47 0,-1 1,-1 3,-1 3,0 5,2 5,5 0,2 -1,3 -2,4 -24,17 -54,33 -90,48 -36,16 -62,24 -78,24zm214 -119c-4,0 -5,-1 -5,-4 0,-2 0,-3 1,-4l3 -4c2,-2 5,-6 8,-11 2,-2 3,-2 5,-2 3,0 5,2 5,5 0,2 -1,3 -1,4 -3,3 -6,7 -9,11l-3 4c-1,1 -2,1 -4,1zm-59 124c-16,0 -24,-8 -24,-24 0,-17 18,-45 56,-83 0,-1 1,-1 3,-1 4,0 6,1 6,5 0,1 -1,2 -2,3 -36,37 -53,62 -53,76 0,9 5,13 14,13 14,0 39,-8 77,-25 38,-16 69,-33 94,-49l3 0c3,0 5,1 5,4 0,2 0,4 -2,5 -26,17 -59,34 -97,51 -38,17 -65,25 -80,25zm250 -4c-22,0 -33,-10 -33,-28 0,-8 7,-23 20,-45 2,-2 2,-3 1,-4 0,0 -2,0 -3,1 -54,49 -86,74 -98,74 -8,0 -12,-5 -12,-13 0,-17 13,-36 38,-57 24,-21 47,-31 68,-31 7,0 12,1 15,4 4,-5 13,-13 25,-24 50,-71 112,-146 184,-227 73,-81 117,-122 133,-122 8,0 13,4 13,12 0,12 -37,56 -109,132 -72,77 -144,148 -216,215l-18 25c2,4 3,9 3,14 -1,3 -3,5 -5,5 -4,0 -6,-2 -6,-6l0 -1c-15,26 -23,42 -23,48 0,11 8,17 23,17 18,0 44,-7 79,-20 34,-13 66,-30 94,-50l1 -1c1,0 2,0 2,0 4,0 6,2 6,5 0,3 -1,4 -3,5 -29,20 -62,37 -97,51 -36,14 -63,21 -82,21zm63 -163c68,-66 131,-130 190,-191 58,-62 87,-97 87,-106 0,-1 0,-2 -2,-2 -12,0 -48,33 -108,98 -60,66 -116,133 -167,201zm-174 150c9,0 41,-27 98,-79l-6 0c-17,0 -37,9 -60,27 -23,19 -35,35 -35,49 0,2 1,3 3,3zm395 13c-22,0 -33,-10 -33,-28 0,-13 7,-32 23,-55 1,-1 1,-2 1,-3 -1,0 -2,0 -3,1 -4,3 -10,7 -18,13 -65,47 -106,70 -122,70 -11,0 -16,-5 -16,-15 0,-15 15,-32 44,-52 30,-20 53,-30 70,-30 12,0 20,4 25,13 20,-14 32,-22 35,-22 5,0 7,2 7,7 0,2 -4,8 -10,18 -18,25 -26,43 -26,55 0,11 8,17 23,17 15,0 40,-7 74,-21 34,-14 63,-30 87,-48 1,-1 2,-1 4,-1 3,0 5,1 5,4 0,2 -1,4 -2,5 -25,18 -56,35 -91,50 -35,14 -61,22 -77,22zm-152 -13c17,0 55,-23 114,-67 -3,-6 -8,-9 -16,-9 -16,0 -37,9 -64,28 -27,18 -40,33 -40,44 0,3 2,4 6,4zm392 13c-22,0 -33,-10 -33,-28 0,-8 7,-23 21,-45 1,-2 1,-3 0,-4 0,0 -1,0 -3,1 -53,49 -86,74 -97,74 -8,0 -12,-5 -12,-13 0,-17 12,-36 37,-57 25,-21 47,-31 68,-31 7,0 12,1 15,4 5,-5 13,-13 25,-24 51,-71 112,-146 184,-227 73,-81 117,-122 133,-122 8,0 13,4 13,12 0,12 -36,56 -108,132 -73,77 -145,148 -217,215l-17 25c1,4 2,9 2,14 -1,3 -3,5 -5,5 -4,0 -6,-2 -6,-6l0 -1c-15,26 -23,42 -23,48 0,11 8,17 23,17 18,0 44,-7 79,-20 34,-13 66,-30 95,-50l1 -1c0,0 1,0 1,0 4,0 6,2 6,5 0,3 -1,4 -3,5 -29,20 -62,37 -97,51 -35,14 -63,21 -82,21zm63 -163c68,-66 132,-130 190,-191 58,-62 88,-97 88,-106 0,-1 -1,-2 -3,-2 -12,0 -47,33 -107,98 -60,66 -116,133 -168,201zm-174 150c9,0 42,-27 99,-79l-7 0c-17,0 -37,9 -60,27 -23,19 -34,35 -34,49 0,2 1,3 2,3zm266 19c-12,0 -18,-7 -18,-21 0,-13 6,-26 16,-40 10,-14 24,-26 40,-35 0,-1 0,-1 1,-1 0,0 0,-1 0,-1 3,-5 6,-7 9,-6 2,1 3,1 4,0 4,-2 9,-4 13,-4 0,-1 0,-1 2,-1 3,0 4,2 4,5 0,3 -1,5 -3,5 -1,0 -2,0 -2,1l-2 1c-2,1 -2,2 0,3 25,14 52,22 81,24 29,1 55,-4 77,-17l2 0c4,0 6,1 6,4 0,2 -1,4 -4,5 -24,14 -52,20 -84,18 -32,-1 -61,-11 -87,-27 -2,-2 -3,-1 -3,2 3,18 -1,37 -13,56 -11,19 -25,29 -39,29zm0 -10c11,0 21,-9 31,-27 10,-18 13,-35 11,-49 -15,8 -27,19 -36,31 -9,12 -14,24 -14,34 0,7 3,11 8,11zm196 274c-5,0 -6,-3 -5,-8 0,-1 0,-1 1,-1l2 -5c43,-74 107,-167 192,-280 -24,-3 -48,-9 -71,-18 -3,0 -4,-1 -4,-4 0,-4 2,-6 5,-6 1,0 2,1 2,1 27,9 52,15 75,17 11,-16 22,-31 35,-46 0,-1 1,-1 1,-1 59,-76 111,-139 157,-188 45,-50 75,-74 90,-74 10,0 15,4 15,12 0,19 -30,59 -89,121 -59,62 -114,108 -166,137l-31 40 12 0c66,0 121,-15 166,-47 1,-1 2,-1 4,-1 4,0 6,1 6,4 0,3 -1,4 -3,5 -48,34 -105,51 -173,51 -3,0 -9,-1 -19,-2 -79,106 -141,194 -183,265 1,1 1,3 0,6 -8,15 -14,22 -19,22zm257 -366c50,-32 100,-75 151,-130 50,-55 76,-90 76,-105 0,-1 -2,-1 -4,-1 -24,0 -99,78 -223,236zm242 96c-22,0 -33,-10 -33,-28 0,-13 7,-32 22,-55 2,-1 2,-2 1,-3 0,0 -1,0 -2,1 -5,3 -11,7 -19,13 -65,47 -105,70 -121,70 -11,0 -16,-5 -16,-15 0,-15 15,-32 44,-52 30,-20 53,-30 69,-30 13,0 21,4 26,13 20,-14 31,-22 35,-22 4,0 6,2 6,7 0,2 -3,8 -10,18 -17,25 -25,43 -25,55 0,11 7,17 23,17 15,0 39,-7 73,-21 34,-14 64,-30 88,-48 1,-1 2,-1 4,-1 3,0 4,1 4,4 0,2 0,4 -2,5 -25,18 -55,35 -90,50 -35,14 -61,22 -77,22zm-152 -13c17,0 55,-23 114,-67 -3,-6 -9,-9 -17,-9 -15,0 -37,9 -63,28 -27,18 -40,33 -40,44 0,3 2,4 6,4zm324 16c-25,0 -38,-9 -38,-27 0,-4 0,-7 1,-9 3,-16 13,-31 29,-47 17,-15 32,-23 46,-23 11,0 16,4 16,14 0,12 -6,23 -20,31l-1 0c0,0 -1,1 -2,1 -3,0 -5,-2 -5,-6 0,-1 1,-3 3,-4 9,-6 14,-13 15,-21 0,-3 -2,-4 -6,-4 -12,0 -25,7 -39,21 -14,13 -23,27 -26,39l0 8c0,11 9,16 27,16 24,0 54,-6 90,-20 36,-13 70,-31 103,-52 0,-1 1,-1 3,-1 3,0 5,1 5,4 0,3 -1,4 -3,5 -33,22 -68,40 -105,54 -37,14 -68,21 -93,21zm245 -123c-3,0 -5,-1 -5,-4 0,-2 0,-3 1,-4l3 -4c2,-2 5,-6 9,-11 1,-2 2,-2 4,-2 3,0 5,2 5,5 0,2 0,3 -1,4 -3,3 -6,7 -8,11l-4 4c-1,1 -2,1 -4,1zm-58 124c-17,0 -25,-8 -25,-24 0,-17 19,-45 56,-83 0,-1 2,-1 4,-1 3,0 5,1 5,5 0,1 -1,2 -2,3 -35,37 -53,62 -53,76 0,9 5,13 15,13 13,0 39,-8 76,-25 38,-16 69,-33 94,-49l3 0c4,0 6,1 6,4 0,2 -1,4 -2,5 -27,17 -60,34 -98,51 -38,17 -65,25 -79,25zm281 -4c-22,0 -33,-10 -33,-28 0,-13 7,-32 23,-55 1,-1 1,-2 0,-3 0,0 -1,0 -2,1 -5,3 -11,7 -19,13 -64,47 -105,70 -121,70 -11,0 -16,-5 -16,-15 0,-15 15,-32 44,-52 30,-20 53,-30 70,-30 12,0 20,4 25,13 20,-14 31,-22 35,-22 4,0 6,2 6,7 0,2 -3,8 -10,18 -17,25 -25,43 -25,55 0,11 7,17 23,17 15,0 40,-7 73,-21 34,-14 64,-30 88,-48 1,-1 2,-1 4,-1 3,0 4,1 4,4 0,2 0,4 -2,5 -25,18 -55,35 -90,50 -35,14 -61,22 -77,22zm-152 -13c17,0 55,-23 114,-67 -3,-6 -9,-9 -16,-9 -16,0 -38,9 -64,28 -27,18 -40,33 -40,44 0,3 2,4 6,4zm305 52c-20,0 -30,-9 -30,-27 0,-33 32,-90 97,-169 64,-80 133,-152 206,-217 74,-65 123,-98 148,-98 14,0 20,6 20,18 0,26 -51,85 -153,176 -103,92 -194,162 -275,211 -22,34 -33,60 -33,79 0,7 1,11 4,13 3,3 8,4 16,4 15,0 43,-11 84,-32 41,-22 84,-47 127,-77 1,-1 2,-1 4,-1 3,0 4,2 4,5 0,2 0,3 -2,4 -41,29 -83,54 -127,77 -43,23 -73,34 -90,34zm27 -127c82,-52 169,-121 263,-205 94,-85 141,-138 141,-161 0,-5 -3,-8 -10,-8 -28,0 -88,44 -180,131 -92,88 -164,169 -214,243z"/>
 </g>
</svg>
